<mxfile host="app.diagrams.net" agent="Mozilla/5.0 (Windows NT 10.0; Win64; x64) AppleWebKit/537.36 (KHTML, like Gecko) Chrome/132.0.0.0 Safari/537.36 Edg/132.0.0.0" version="26.0.4">
  <diagram name="PÃ¡gina-1" id="ByPnyzdSTrtcEhe8VtN3">
    <mxGraphModel dx="1026" dy="1721" grid="1" gridSize="10" guides="1" tooltips="1" connect="1" arrows="1" fold="1" page="1" pageScale="1" pageWidth="827" pageHeight="1169" background="#ffffff" math="0" shadow="0">
      <root>
        <mxCell id="0" />
        <mxCell id="1" parent="0" />
        <mxCell id="PI2RKGxT_Rypo4yKlgE0-66" value="Raspberry Pi" style="shape=mxgraph.cisco.misc.pxf;html=1;pointerEvents=1;dashed=0;fillColor=#036897;strokeColor=#ffffff;strokeWidth=2;verticalLabelPosition=bottom;verticalAlign=top;align=center;outlineConnect=0;direction=south;" vertex="1" parent="1">
          <mxGeometry x="225" y="121.75" width="70" height="49.13" as="geometry" />
        </mxCell>
        <mxCell id="PI2RKGxT_Rypo4yKlgE0-67" value="" style="verticalLabelPosition=bottom;html=1;verticalAlign=top;align=center;strokeColor=none;fillColor=#00BEF2;shape=mxgraph.azure.mobile;pointerEvents=1;" vertex="1" parent="1">
          <mxGeometry x="130" y="260" width="35" height="50" as="geometry" />
        </mxCell>
        <mxCell id="PI2RKGxT_Rypo4yKlgE0-90" value="SSH" style="edgeStyle=orthogonalEdgeStyle;rounded=0;orthogonalLoop=1;jettySize=auto;html=1;fillColor=#fff2cc;strokeColor=#d6b656;" edge="1" parent="1" source="PI2RKGxT_Rypo4yKlgE0-69" target="PI2RKGxT_Rypo4yKlgE0-74">
          <mxGeometry relative="1" as="geometry" />
        </mxCell>
        <mxCell id="PI2RKGxT_Rypo4yKlgE0-69" value="" style="image;points=[];aspect=fixed;html=1;align=center;shadow=0;dashed=0;image=img/lib/allied_telesis/computer_and_terminals/Laptop.svg;" vertex="1" parent="1">
          <mxGeometry x="413.25" y="290" width="69.01" height="70" as="geometry" />
        </mxCell>
        <mxCell id="PI2RKGxT_Rypo4yKlgE0-72" value="Internet" style="ellipse;shape=cloud;whiteSpace=wrap;html=1;" vertex="1" parent="1">
          <mxGeometry x="473.89" y="-90" width="180" height="130" as="geometry" />
        </mxCell>
        <mxCell id="PI2RKGxT_Rypo4yKlgE0-73" style="edgeStyle=orthogonalEdgeStyle;rounded=0;orthogonalLoop=1;jettySize=auto;html=1;startArrow=classic;startFill=1;" edge="1" parent="1" source="PI2RKGxT_Rypo4yKlgE0-74" target="PI2RKGxT_Rypo4yKlgE0-72">
          <mxGeometry relative="1" as="geometry" />
        </mxCell>
        <mxCell id="PI2RKGxT_Rypo4yKlgE0-74" value="Home router&lt;div&gt;192.168.1.1&lt;/div&gt;" style="verticalLabelPosition=bottom;sketch=0;aspect=fixed;html=1;verticalAlign=top;strokeColor=none;align=center;outlineConnect=0;shape=mxgraph.citrix.router;" vertex="1" parent="1">
          <mxGeometry x="520" y="117.19" width="87.77" height="58.25" as="geometry" />
        </mxCell>
        <mxCell id="PI2RKGxT_Rypo4yKlgE0-83" style="edgeStyle=orthogonalEdgeStyle;rounded=0;orthogonalLoop=1;jettySize=auto;html=1;endArrow=none;endFill=0;" edge="1" parent="1" source="PI2RKGxT_Rypo4yKlgE0-75" target="PI2RKGxT_Rypo4yKlgE0-77">
          <mxGeometry relative="1" as="geometry" />
        </mxCell>
        <mxCell id="PI2RKGxT_Rypo4yKlgE0-75" value="" style="sketch=0;pointerEvents=1;shadow=0;dashed=0;html=1;strokeColor=none;fillColor=#434445;aspect=fixed;labelPosition=center;verticalLabelPosition=bottom;verticalAlign=top;align=center;outlineConnect=0;shape=mxgraph.vvd.ethernet_port;" vertex="1" parent="1">
          <mxGeometry x="501.75" y="122.18" width="18.25" height="18.25" as="geometry" />
        </mxCell>
        <mxCell id="PI2RKGxT_Rypo4yKlgE0-82" value="&lt;font style=&quot;font-size: 7px;&quot;&gt;SSH&amp;nbsp;&lt;/font&gt;&lt;span style=&quot;font-size: 7px; background-color: light-dark(#ffffff, var(--ge-dark-color, #121212)); color: light-dark(rgb(5, 5, 5), rgb(233, 233, 233));&quot;&gt;Auxiliar link&lt;/span&gt;" style="edgeStyle=orthogonalEdgeStyle;rounded=0;orthogonalLoop=1;jettySize=auto;html=1;fontColor=#050505;fillColor=#fff2cc;strokeColor=#d6b656;" edge="1" parent="1" source="PI2RKGxT_Rypo4yKlgE0-76" target="PI2RKGxT_Rypo4yKlgE0-81">
          <mxGeometry relative="1" as="geometry" />
        </mxCell>
        <mxCell id="PI2RKGxT_Rypo4yKlgE0-76" value="" style="sketch=0;pointerEvents=1;shadow=0;dashed=0;html=1;strokeColor=none;fillColor=#434445;aspect=fixed;labelPosition=center;verticalLabelPosition=bottom;verticalAlign=top;align=center;outlineConnect=0;shape=mxgraph.vvd.ethernet_port;" vertex="1" parent="1">
          <mxGeometry x="501.75" y="148.66" width="18.25" height="18.25" as="geometry" />
        </mxCell>
        <mxCell id="PI2RKGxT_Rypo4yKlgE0-77" value="" style="sketch=0;pointerEvents=1;shadow=0;dashed=0;html=1;strokeColor=none;fillColor=#434445;aspect=fixed;labelPosition=center;verticalLabelPosition=bottom;verticalAlign=top;align=center;outlineConnect=0;shape=mxgraph.vvd.ethernet_port;" vertex="1" parent="1">
          <mxGeometry x="295" y="122.18" width="18.25" height="18.25" as="geometry" />
        </mxCell>
        <mxCell id="PI2RKGxT_Rypo4yKlgE0-79" value="" style="sketch=0;aspect=fixed;pointerEvents=1;shadow=0;dashed=0;html=1;strokeColor=none;labelPosition=center;verticalLabelPosition=bottom;verticalAlign=top;align=center;fillColor=#00188D;shape=mxgraph.mscae.enterprise.usb" vertex="1" parent="1">
          <mxGeometry x="295" y="150.88" width="30" height="13.8" as="geometry" />
        </mxCell>
        <mxCell id="PI2RKGxT_Rypo4yKlgE0-80" value="&lt;font style=&quot;font-size: 6px;&quot;&gt;USB &amp;gt; Ethernet&lt;/font&gt;&lt;div&gt;&lt;font style=&quot;font-size: 6px;&quot;&gt;Adapter&lt;/font&gt;&lt;/div&gt;" style="rounded=0;whiteSpace=wrap;html=1;" vertex="1" parent="1">
          <mxGeometry x="325" y="142.78" width="70" height="28.1" as="geometry" />
        </mxCell>
        <mxCell id="PI2RKGxT_Rypo4yKlgE0-81" value="" style="sketch=0;pointerEvents=1;shadow=0;dashed=0;html=1;strokeColor=none;fillColor=#434445;aspect=fixed;labelPosition=center;verticalLabelPosition=bottom;verticalAlign=top;align=center;outlineConnect=0;shape=mxgraph.vvd.ethernet_port;" vertex="1" parent="1">
          <mxGeometry x="395" y="148.66" width="18.25" height="18.25" as="geometry" />
        </mxCell>
        <mxCell id="PI2RKGxT_Rypo4yKlgE0-84" value="&lt;b&gt;eth0&lt;/b&gt;" style="text;html=1;align=center;verticalAlign=middle;whiteSpace=wrap;rounded=0;" vertex="1" parent="1">
          <mxGeometry x="274.13" y="100" width="60" height="30" as="geometry" />
        </mxCell>
        <mxCell id="PI2RKGxT_Rypo4yKlgE0-85" value="" style="sketch=0;pointerEvents=1;shadow=0;dashed=0;html=1;strokeColor=none;fillColor=#434445;aspect=fixed;labelPosition=center;verticalLabelPosition=bottom;verticalAlign=top;align=center;outlineConnect=0;shape=mxgraph.vvd.wi_fi;direction=west;" vertex="1" parent="1">
          <mxGeometry x="195" y="145.44" width="30" height="30" as="geometry" />
        </mxCell>
        <mxCell id="PI2RKGxT_Rypo4yKlgE0-86" value="&lt;b&gt;wlan0&lt;/b&gt;" style="text;html=1;align=center;verticalAlign=middle;whiteSpace=wrap;rounded=0;" vertex="1" parent="1">
          <mxGeometry x="150" y="150.88" width="60" height="30" as="geometry" />
        </mxCell>
        <mxCell id="PI2RKGxT_Rypo4yKlgE0-88" value="&lt;b&gt;br0&lt;/b&gt;" style="shape=flexArrow;endArrow=classic;html=1;rounded=0;entryX=0.25;entryY=1;entryDx=0;entryDy=0;fillColor=#f5f5f5;strokeColor=#666666;" edge="1" parent="1" target="PI2RKGxT_Rypo4yKlgE0-84">
          <mxGeometry width="50" height="50" relative="1" as="geometry">
            <mxPoint x="225" y="150.88" as="sourcePoint" />
            <mxPoint x="275" y="100.88" as="targetPoint" />
          </mxGeometry>
        </mxCell>
      </root>
    </mxGraphModel>
  </diagram>
</mxfile>
